<?xml version="1.0" encoding="utf-8"?>
<!-- Generator: Adobe Illustrator 19.0.0, SVG Export Plug-In . SVG Version: 6.00 Build 0)  -->
<svg version="1.1" id="Layer_1" xmlns="http://www.w3.org/2000/svg" xmlns:xlink="http://www.w3.org/1999/xlink" x="0px" y="0px"
	 viewBox="-16 18.8 93.8 92.2" style="enable-background:new -16 18.8 93.8 92.2;" xml:space="preserve">
<style type="text/css">
	.st0{fill:#DDDDDD;}
	.st1{fill:#FB040A;}
</style>
<g>
	<path class="st0" d="M26.6,100.3H7.9c0,0-0.1,0-0.1-0.1V73.4c0-1.1-0.9-2.1-2.1-2.1H-9.1c-0.1,0-0.1-0.1,0-0.1L7.5,54.6
		c0.4-0.4,0.6-0.9,0.6-1.5V30.8c0,0,0-0.1,0.1-0.1h8.3c0,0,0.1,0,0.1,0.1v10c0,0.8,0.5,1.5,1.2,1.8c0.7,0.3,1.6,0.1,2.2-0.4
		l18.5-18.5h0.1l3.2,3.2c0.7,0.7,1.9,0.9,2.7,0.3c1-0.7,1.1-2.2,0.2-3L40,19.5c-0.4-0.5-0.9-0.7-1.5-0.7c-0.5,0-1,0.2-1.4,0.6
		L20.6,35.9h-0.1v-7.1c0-1.1-0.9-2.1-2.1-2.1H6.1C5,26.7,4,27.6,4,28.8v23.5l-19.5,19.5c-0.6,0.6-0.7,1.4-0.4,2.2
		c0.3,0.7,1,1.2,1.8,1.2H3.8c0,0,0.1,0,0.1,0.1v26.8c0,1.1,0.9,2.1,2.1,2.1h20.8c1.2,0,2.2-1.1,2-2.3
		C28.6,101,27.6,100.3,26.6,100.3z"/>
	<path class="st1" d="M46.6,63.8v7.6c0,1,0.7,2,1.7,2.1c1.2,0.2,2.3-0.8,2.3-2v-7.6c0-1-0.7-2-1.7-2.1
		C47.7,61.6,46.6,62.6,46.6,63.8z"/>
	<path class="st1" d="M75.5,76.9h-2.4c0,0-0.1,0-0.1-0.1c-0.5-6.8-1.2-13.2-2-14.6c-1.3-2.1-4.3-3.2-7.8-4.6c-0.9-0.3-1.7-0.7-2.6-1
		c-1.9-0.8-2.4-1.1-3.2-1.5c0,0,0-0.4,0-0.5v-1.8c0.6-0.8,1.4-2.1,1.8-4.1c0.1,0,0.1-0.1,0.2-0.1c1.3-0.9,2-2.6,2.1-3.7
		c0.1-0.3,0.2-2.9-1.1-4.3c0.2-1.5,0.3-2.6,0.2-3.4c-0.4-4.1-4.4-8.3-10.3-8.3c-0.1,0-0.3,0-0.4,0c-0.1,0-0.3,0-0.4,0
		c-5.9,0-9.9,4.2-10.3,8.3c-0.1,0.8,0,1.9,0.2,3.4c-1.3,1.4-1.2,4-1.1,4.3c0.1,1.1,0.8,2.8,2.1,3.7c0.1,0,0.1,0.1,0.2,0.1
		c0.4,2,1.2,3.3,1.8,4.1v1.9c0,0,0,0,0,0.1c-0.7,0.3-1.9,0.9-3.8,1.7c-4.2,1.7-7.5,3.1-9.1,5.6c-0.5,0.7-1.5,2.3,4.2,47
		c0.1,1,1,1.7,2,1.7H36c1.1-0.1,1.9-1.1,1.7-2.2c-2.5-19.4-4.9-41.2-4.6-44.6c1.1-1.3,3.9-2.5,7.1-3.8c4.1-1.7,5.2-2.3,5.4-2.5
		c0.6-0.4,1-1,1-1.7v-4c0-0.6-0.2-1.2-0.7-1.5c0,0-1-0.9-1.3-3.6c-0.1-0.6-0.4-1.1-0.9-1.4c-0.3-0.2-0.6-0.3-0.9-0.3
		c-0.1-0.2-0.2-0.4-0.2-0.5c0-0.3,0-0.7,0.1-1.1c0.2-0.1,0.4-0.2,0.6-0.4c0.5-0.4,0.7-1.1,0.6-1.7c-0.1-0.8-0.3-2.6-0.3-3.5
		c0,0,0,0,0,0c0,0,0,0,0,0c0-0.1,0-0.2,0-0.3c0.1-0.6,0.3-1.3,0.8-1.9c0.7-1,1.8-2,3.4-2.5c0,0,0,0,0.1,0c0.1,0,0.2,0,0.3-0.1
		c0.1,0,0.2-0.1,0.3-0.1c0,0,0,0,0.1,0c0.4-0.1,0.9-0.1,1.3-0.1c0,0,0,0,0,0c0,0,0,0,0,0c-0.5,0-0.9,0-1.3,0.1
		c0.4-0.1,0.8-0.1,1.3-0.1c0.5,0,0.9,0,1.3,0.1c0,0,0,0,0.1,0c0.1,0,0.2,0.1,0.3,0.1c0.1,0,0.2,0,0.3,0.1c0,0,0,0,0.1,0
		c1.6,0.5,2.8,1.4,3.4,2.5c0.4,0.6,0.7,1.3,0.7,1.9c0,0.1,0,0.2,0,0.3c0,0,0,0,0,0c0,1-0.2,2.8-0.3,3.5c-0.1,0.6,0.1,1.3,0.6,1.7
		c0.2,0.2,0.4,0.3,0.6,0.4c0.1,0.4,0.1,0.8,0.1,1.1c0,0.1-0.1,0.3-0.2,0.5c-0.3,0-0.6,0.1-0.9,0.3c-0.5,0.3-0.8,0.8-0.9,1.4
		c-0.3,2.7-1.3,3.6-1.3,3.6c-0.5,0.3-0.7,0.9-0.7,1.5v2.5l0,1.5c0,0.7,0,1.3,0.6,1.7c0.2,0.1,1.3,0.8,5.4,2.5
		c0.9,0.4,1.8,0.7,2.7,1.1c2.4,0.9,5.2,2,5.9,2.9c0.5,1.3,1.1,7.7,1.6,14.4v0.5c0.1,1.1,0.1,2.1,0.2,3.2l-14.1,15
		c-0.1,0.1-0.1,0.1-0.2,0.2h-8.1c0,0-0.1,0-0.1-0.1V80.9c0,0,0-0.1,0.1-0.1h9.6c1,0,2-0.7,2.1-1.7c0.2-1.2-0.8-2.3-2-2.3H45.1
		c-1.1,0-2.1,0.9-2.1,2.1v20.7c0,1.1,0.9,2.1,2.1,2.1h19.4c0,0,0.1,0,0.1,0.1v7c0,1,0.7,2,1.7,2.1c1.2,0.2,2.3-0.8,2.3-2v-7.2
		c0,0,0-0.1,0.1-0.1h7c1.1,0,2.1-0.9,2.1-2.1V78.9C77.6,77.8,76.7,76.9,75.5,76.9z M73.6,97.6l-12.9,0.1c-0.1,0-0.1-0.1,0-0.1
		l12.2-13c0.4-0.4,0.6-0.9,0.5-1.5c0-0.7-0.1-1.5-0.1-2.2h0.3V97.6z"/>
</g>
</svg>
