<svg x="0px" y="0px"
	 viewBox="0 0 32 32" xml:space="preserve">
<g>
	<path d="M3.2,12.8c0-0.3,0-0.5,0-0.8c0.2-0.3,0.3-0.6,0.5-0.9c0.2-0.2,0.3-0.5,0.5-0.7c0.2-0.3,0.5-0.6,0.7-0.9
		c0.3-0.3,0.5-0.7,0.8-1C5.8,8.4,5.9,8.2,5.9,8c0-1,0-2,0-3C13.3,5,20.6,5,28,5c0,0.9,0,1.9,0,2.8c0,0.5,0.2,0.8,0.4,1.1
		c0.2,0.3,0.5,0.6,0.8,1c0.3,0.3,0.5,0.7,0.8,1c0.3,0.3,0.6,0.7,0.6,1.1c0,0.1,0.1,0.1,0.1,0.2c0,0.2,0,0.4,0,0.6
		c-0.1,0.2-0.2,0.5-0.3,0.7c-0.1,0.6-0.6,1-1,1.3c-0.3,0.2-0.7,0.4-1.2,0.4c-0.2,0-0.2,0.1-0.2,0.2c0,0.2,0,0.3,0,0.5
		c0,3.5,0,7,0,10.4c0,0.2,0,0.5,0,0.7c-1.9,0-3.8,0-5.7,0c0-0.3,0-0.7,0-1c0-2.3,0-4.6,0-7c0-0.1-0.1-0.2-0.2-0.2
		c-0.4,0-0.9,0-1.3,0c-0.2,0-0.2,0.1-0.2,0.2c0,0.2,0,0.5,0,0.7c0,2.2,0,4.3,0,6.5c0,0.3,0,0.5,0,0.8c-4.9,0-9.9,0-14.8,0
		c0-0.2,0-0.5,0-0.7c0-3.5,0-7,0-10.5c0-0.1,0-0.2,0-0.3c0-0.3,0-0.3-0.3-0.3c-0.4,0-0.7-0.3-1.1-0.4c0,0,0,0-0.1,0
		c-0.2-0.2-0.4-0.3-0.6-0.5c-0.2-0.2-0.4-0.4-0.5-0.7C3.4,13.2,3.3,13,3.2,12.8z M13.3,25.1c1,0,2,0,3,0c0.7,0,1.5,0,2.2,0
		c0.2,0,0.2-0.1,0.2-0.3c0-0.1,0-0.3,0-0.4c0-2.4,0-4.8,0-7.2c0-0.3,0.1-0.4,0.4-0.4c1.6,0,3.3,0,4.9,0c0.3,0,0.4,0.1,0.4,0.4
		c0,1.1,0,2.3,0,3.4c0,1.4,0,2.9,0,4.3c0,0.1,0.1,0.2,0.2,0.2c0.4,0,0.9,0,1.3,0c0.2,0,0.2-0.1,0.2-0.2c0-0.2,0-0.3,0-0.5
		c0-3.1,0-6.2,0-9.3c0-0.1,0-0.2,0-0.4c0-0.1,0-0.1-0.1-0.2c0,0-0.1,0-0.1,0.1c-0.2,0.3-0.5,0.4-0.8,0.4c-0.6,0.1-1.3,0.2-1.9-0.2
		c0,0-0.1,0-0.1,0c-0.1-0.1-0.3-0.1-0.4-0.2c-0.2-0.1-0.3-0.1-0.5,0c0,0-0.1,0.1-0.1,0.1c-0.4,0.2-0.8,0.4-1.3,0.4
		c-0.5,0-0.9,0-1.3-0.3c0,0,0,0-0.1,0c-0.1-0.1-0.3-0.1-0.4-0.2c-0.2-0.1-0.4-0.1-0.5,0c0,0-0.1,0.1-0.1,0.1
		c-0.4,0.1-0.7,0.4-1.1,0.4c-0.5,0-1,0.1-1.5-0.3c0,0,0,0-0.1,0c-0.1-0.1-0.3-0.1-0.4-0.2c-0.1-0.1-0.3-0.2-0.4-0.1
		c-0.2,0.2-0.4,0.2-0.6,0.3c-0.2,0.2-0.5,0.2-0.8,0.2c-0.5,0-1,0.1-1.5-0.3c0,0,0,0,0,0c-0.1-0.1-0.3-0.2-0.4-0.3
		c-0.1-0.1-0.3-0.2-0.4,0c-0.2,0.2-0.4,0.2-0.6,0.3c-0.2,0.2-0.5,0.2-0.8,0.2c-0.3,0-0.6,0-0.8,0c-0.4,0-0.8-0.2-1.1-0.5
		c0,0-0.1-0.1-0.1,0s-0.1,0.1-0.1,0.1c0,0.1,0,0.2,0,0.3c0,3.2,0,6.4,0,9.5c0,0.1,0,0.1,0,0.2c0,0.3,0,0.3,0.3,0.3
		C9.9,25.1,11.6,25.1,13.3,25.1z M16.9,9.7c-3,0-6.1,0-9.1,0c-0.1,0-0.2,0-0.4,0c-0.1,0-0.2,0.1-0.2,0.1c-0.2,0.3-0.4,0.5-0.6,0.8
		c-0.1,0.1-0.2,0.3-0.3,0.4c-0.3,0.4-0.6,0.7-0.8,1.1c-0.1,0.1-0.2,0.3-0.2,0.4c0,0.3,0.4,0.7,0.8,0.6c0.3-0.1,0.5-0.3,0.7-0.6
		c0.1-0.2,0.1-0.3,0.3-0.3c0.5,0,1,0,1.5,0c0.1,0,0.2,0.1,0.2,0.2C8.8,12.6,9,12.8,9.1,13c0.2,0.2,0.6,0.3,0.8,0.1
		c0.2-0.2,0.3-0.4,0.4-0.5c0.1-0.1,0.2-0.2,0.3-0.2c0.5,0,1,0,1.5,0c0.1,0,0.2,0.1,0.2,0.2c0.1,0.2,0.2,0.4,0.4,0.5
		c0.2,0.2,0.6,0.3,0.9,0c0.2-0.2,0.3-0.3,0.4-0.5c0.1-0.1,0.2-0.2,0.3-0.2c0.5,0,1,0,1.5,0c0.1,0,0.2,0.1,0.2,0.2
		c0.1,0.2,0.2,0.4,0.4,0.5c0.2,0.2,0.6,0.3,0.9,0c0.2-0.2,0.3-0.3,0.4-0.5c0.1-0.1,0.2-0.2,0.3-0.2c0.5,0,1,0,1.5,0
		c0.1,0,0.2,0.1,0.2,0.2c0.1,0.2,0.2,0.4,0.4,0.5c0.2,0.2,0.6,0.3,0.9,0c0.2-0.2,0.3-0.3,0.4-0.5c0.1-0.1,0.2-0.2,0.3-0.2
		c0.5,0,1,0,1.5,0c0.1,0,0.2,0.1,0.3,0.2c0.1,0.2,0.2,0.4,0.4,0.5c0.2,0.2,0.6,0.3,0.9,0c0.2-0.2,0.3-0.3,0.4-0.5
		c0.1-0.1,0.2-0.2,0.3-0.2c0.5,0,1,0,1.5,0c0.1,0,0.2,0.1,0.3,0.2c0.1,0.2,0.2,0.4,0.4,0.5c0.2,0.2,0.4,0.2,0.7,0.2
		c0.3-0.1,0.5-0.5,0.3-0.8c-0.2-0.3-0.5-0.7-0.7-1c-0.3-0.4-0.6-0.8-0.9-1.2c-0.1-0.1-0.2-0.3-0.3-0.4c0-0.1-0.1-0.1-0.2-0.1
		c-0.1,0-0.2,0-0.4,0C23,9.7,20,9.7,16.9,9.7z M16.9,7.7c2.9,0,5.8,0,8.7,0c0.1,0,0.1,0,0.2,0C26,7.7,26,7.6,26,7.5
		c0-0.1,0-0.3,0-0.4C26,7,26,6.9,25.9,6.9c-0.1,0-0.2,0-0.2,0c-5.8,0-11.6,0-17.3,0c-0.4,0-0.4,0-0.4,0.4c0,0.3,0,0.3,0.3,0.3
		C11.1,7.7,14,7.7,16.9,7.7z"/>
	<path d="M13.3,16.8c1.1,0,2.2,0,3.4,0c0.3,0,0.4,0.1,0.4,0.4c0,1.9,0,3.8,0,5.8c0,0.3-0.1,0.4-0.4,0.4c-2.2,0-4.5,0-6.7,0
		c-0.3,0-0.4-0.1-0.4-0.4c0-1.9,0-3.8,0-5.8c0-0.3,0.1-0.4,0.4-0.4C11.1,16.8,12.2,16.8,13.3,16.8z M13.3,18.8c-0.5,0-1,0-1.5,0
		c-0.2,0-0.2,0-0.2,0.3c0,0.7,0,1.4,0,2.1c0,0.2,0,0.3,0.2,0.3c1,0,2,0,3.1,0c0.2,0,0.2,0,0.2-0.3c0-0.7,0-1.4,0-2.1
		c0-0.2,0-0.3-0.2-0.3C14.3,18.8,13.8,18.8,13.3,18.8z"/>
</g>
</svg>
